<?xml version="1.0" standalone="no"?>
<!DOCTYPE svg PUBLIC "-//W3C//DTD SVG 20010904//EN"
 "http://www.w3.org/TR/2001/REC-SVG-20010904/DTD/svg10.dtd">
<svg version="1.0" xmlns="http://www.w3.org/2000/svg"
 width="432.000000pt" height="432.000000pt" viewBox="0 0 432.000000 432.000000"
 preserveAspectRatio="xMidYMid meet">
<metadata>
Created by potrace 1.11, written by Peter Selinger 2001-2013
</metadata>
<g transform="translate(0.000000,432.000000) scale(0.100000,-0.100000)"
fill="#000000" stroke="none">
<path d="M1886 4309 c-232 -31 -472 -105 -681 -207 -229 -113 -403 -238 -580
-416 -178 -180 -304 -358 -415 -589 -105 -218 -163 -412 -196 -652 -22 -166
-15 -502 14 -665 108 -597 452 -1111 965 -1444 181 -118 462 -236 677 -285
187 -42 231 -46 495 -46 270 1 337 8 526 55 206 53 467 165 636 276 513 333
857 847 965 1444 29 163 36 499 14 665 -66 480 -277 906 -616 1245 -182 182
-359 308 -593 420 -195 93 -355 145 -572 186 -106 19 -528 28 -639 13z m524
-484 c736 -118 1295 -678 1415 -1417 20 -121 20 -375 0 -496 -107 -660 -567
-1185 -1195 -1366 -175 -50 -289 -66 -470 -66 -181 0 -295 16 -470 66 -628
181 -1088 706 -1195 1366 -19 121 -20 375 0 495 82 508 369 935 801 1195 173
105 378 180 589 218 130 24 393 26 525 5z"/>
<path d="M1925 3424 c-452 -80 -833 -411 -985 -854 -81 -238 -81 -572 0 -810
153 -447 536 -777 994 -855 114 -19 328 -19 442 0 457 78 845 412 994 855 81
240 81 570 0 810 -149 443 -535 776 -990 854 -115 20 -343 20 -455 0z"/>
</g>
</svg>
